<?xml version="1.0" encoding="utf-8"?>
<!-- Generator: Adobe Illustrator 26.5.0, SVG Export Plug-In . SVG Version: 6.00 Build 0)  -->
<svg version="1.1" id="Layer_1" xmlns="http://www.w3.org/2000/svg" xmlns:xlink="http://www.w3.org/1999/xlink" x="0px" y="0px"
	 viewBox="0 0 880 603.5" style="enable-background:new 0 0 880 603.5;" xml:space="preserve">
<style type="text/css">
	.st0{fill:#CAD6E4;}
	.st1{fill:#E36265;}
	.st2{fill:#42839F;}
	.st3{fill:#DDBF51;}
	.st4{fill:#4C4152;}
	.st5{fill:#9EA8B3;}
	.st6{fill:#1F2437;}
	.st7{fill:#515D8F;}
</style>
<g id="back">
</g>
<g id="astronauts">
	<g>
		<g>
			<path class="st0" d="M772.9,292.4c1.6,2.9-9.9,114.4-48.6,128.3c-40.3,14.6-143-48-143-48l40.7-73c0,0,54.6,38.7,68.2,33.3
				c17.6-7,29.4-66.1,29.4-66.1L772.9,292.4z"/>
			<path class="st1" d="M685.5,333.4l30.2,80.8l10.7-6.4l-30.9-78.7C692.5,331.5,689.1,332.9,685.5,333.4z"/>
			<path class="st2" d="M698,422c14.3-10.9,31.8-20.8,51.1-28.1C744.4,413.6,721.6,430,698,422z"/>
		</g>
		<g>
			<path class="st0" d="M735.9,519l-53,34.6c0,0-44.2-41.9-73.3-69c-25-23.3-89.7-103.8-89.7-103.8l89.1-15.6
				c0,0,54.7,72.6,65.6,86.6C695.9,478.7,735.9,519,735.9,519z"/>
			<polygon class="st1" points="658.5,430.4 609.2,476.3 618.1,485.2 665.2,439.3 			"/>
			<path class="st2" d="M587.5,461.1c11.1,14.5,27.7,32.2,43.4,42.5C622.7,475.4,605.2,461.9,587.5,461.1z"/>
		</g>
		<g>
			<path class="st2" d="M294.3,223.5c-1.2-0.7-31-29.3-30.2-35.9c0.8-6.5,11.9-24.7,17.7-23.7c5.1,0.9,14.9,16,17.8,15.3
				c3.5-0.8-0.9-21.3,7.2-21c8.1,0.3,11.2,31.6,11.2,31.6L294.3,223.5z"/>
			<path class="st0" d="M293.2,224.8c7.1-15.2,16.5-27.7,27.5-38.1c0,0,29.3,28,49.3,34.4c21.3,6.9,56.2-35.1,56.2-35.1l54.5,61.5
				c0,0-61,68.6-106.2,50.3C329.3,279.4,293.2,224.8,293.2,224.8z"/>
			<path class="st1" d="M379.6,293c-9.1-22.5-11.4-47.6-7-71.4c3.8,0.5,7.8-0.1,12-1.8c-6.4,29.2-4.3,53.6,7.6,75.7L379.6,293z"/>
			<path class="st2" d="M361,291.1c17.4-2.5,35.8,0.8,56.2,3.9C398.7,305.1,384.2,310,361,291.1z"/>
		</g>
		<path class="st3" d="M202.6,109.7l28.5-11c1.4-0.5,2.9-0.3,4.1,0.6l24.9,18.4c3,2.2,7.1-0.1,6.9-4l-1.3-31.8c0-1.5,0.6-3,1.7-3.9
			l24.3-19c2.9-2.3,2.1-7.1-1.5-8.2l-29.3-8.7c-1.4-0.4-2.5-1.5-3-3l-9.9-30.2c-1.2-3.7-5.8-4.3-7.9-1.1l-16.8,26.5
			c-0.8,1.3-2.1,2-3.6,2l-30.4,0.4c-3.7,0.1-5.7,4.5-3.4,7.5l18.9,25c0.9,1.2,1.2,2.8,0.8,4.2l-8.9,30.4
			C195.7,107.6,199.2,111,202.6,109.7z"/>
		<g>
			<path class="st2" d="M728,150.8c1.4,0.1,38.3,11.9,40.1,18.2c1.8,6.3-1.2,27.6-6.8,29.2c-5.1,1.5-19.7-8-22.2-6
				c-2.9,2.4,9.1,18.9,1.7,22.2s-22.5-23.7-22.5-23.7L728,150.8z"/>
			<path class="st0" d="M728.1,147.7c0,0,3.5,10.6,1.6,22.5c-1.9,11.8-9.9,29.4-9.9,29.4s-41.4-2.4-62.2-3.8
				c-22.1-1.5-63.3,7.4-63.3,7.4c-31.5-5.5-56.7-27.6-79.4-55.8c0,0,74.3-31.6,122-24.9C690.5,130.1,728.1,147.7,728.1,147.7z"/>
			<path class="st1" d="M647.3,125.4c0,0,7.7,21.5,8.2,38.2c0.5,17.1-0.6,32.1-0.6,32.1l-10.6,0.2c0,0,2.2-19.2,0.3-35.9
				c-1.9-16.7-9.9-36.7-9.9-36.7L647.3,125.4z"/>
			<path class="st2" d="M614.5,121.8c21.4-3,38.3-0.8,53.6,6.4c-4.5,9.5-16.8,13.5-30.5,10.7C626.5,136.7,617.9,130.1,614.5,121.8z"
				/>
		</g>
		<g>
			<path d="M629.1,397.9c0.3,0,0.6-0.2,0.7-0.5c0.1-0.4-0.1-0.8-0.5-1c-16.1-5.5-25-9.1-37.2-13.9l-1-0.4c-0.4-0.2-0.8,0.1-0.9,0.5
				c-0.1,0.4,0,0.8,0.4,1l1,0.4c12.2,4.9,21,8.4,37.2,13.9C629,397.9,629,397.9,629.1,397.9z"/>
		</g>
		<g>
			<path class="st4" d="M465.3,253.1c-19.3-14.7-33.6-33.9-48.4-55.5c0,0-4.7-6-1.7-11c1.5-2.4,7.3-2.4,7.3-2.4s-3-6.6,0-11
				c3.3-4.8,9.3-3,9.3-3L465.3,253.1z"/>
			<path class="st0" d="M617.7,287.9c-33,18.3-69.7,33.5-112.2,47.6L431,183.1c-2.6-5.3-1.2-11.9,3.4-15.5
				c12.7-9.9,38.1-28.7,56.5-35.4c37.7-13.9,80.2-14.8,80.2-14.8L617.7,287.9z"/>
			<polygon class="st1" points="493.1,282.4 500.4,325.3 491.1,306.2 483.6,277.8 			"/>
			<path class="st1" d="M463.4,215.2l-1.8,11.1c0,0-15.1-11.5-15.4-12.1c-0.3-0.6-11.8-24.1-11.8-24.1L463.4,215.2z"/>
			<polygon class="st1" points="609.8,259.3 548.6,252.6 545.4,263.2 614,274.7 			"/>
			<polygon class="st1" points="577.2,143.5 535.6,196.4 528.4,186.1 574.6,125.7 			"/>
			<polygon class="st4" points="532,184.7 556,262.8 488,291.8 455.3,215.1 			"/>
			<polygon class="st0" points="526.3,193.7 546.9,262.5 487.8,287.7 458.9,220 			"/>
			<polygon class="st2" points="524.9,197.5 462.2,222 488.8,284 542.8,261 			"/>
			<polygon class="st0" points="512.3,207.5 518.4,227.6 512.5,243.9 481.2,258.5 467.5,225.6 			"/>
			<path class="st0" d="M525,252.4c0.9,2.5,3.1,3.7,4.9,2.9c1.8-0.8,2.5-3.5,1.6-6c-0.9-2.5-3.1-3.7-4.9-2.9
				C524.9,247.3,524.2,249.9,525,252.4z"/>
			<path class="st0" d="M516.2,256.6c0.9,2.5,3.1,3.8,5,2.9c1.8-0.8,2.5-3.6,1.7-6s-3.1-3.8-5-2.9
				C516,251.4,515.3,254.1,516.2,256.6z"/>
			<path class="st0" d="M507,260.9c0.9,2.5,3.1,3.8,5,2.9c1.8-0.8,2.5-3.6,1.7-6c-0.9-2.5-3.1-3.8-5-2.9
				C506.8,255.8,506.1,258.4,507,260.9z"/>
			<path class="st4" d="M585,203.3c-6.8-26.2-5.3-55.4,7.4-77.5c0,0,0.2-4.9-5.2-6.8c-2.6-0.9-7,3-7,3s-2.6-4.6-7.7-6
				c-5.5-1.6-8.3,2.5-8.3,2.5C561.2,146.7,567.3,173.4,585,203.3z"/>
			<polygon class="st5" points="501.5,216.7 504.5,225.1 476.7,238.3 472.3,226.6 			"/>
			<polygon class="st5" points="488.9,238 492.5,249.3 490.2,250.4 486.1,239.3 			"/>
			<polygon class="st5" points="484,240.3 487.6,251.6 485.3,252.7 481.2,241.6 			"/>
			<path class="st0" d="M522.8,203.2c0,0.7,6.5,23.8,6.5,23.8l-5.2,1.9l-6.8-23.2L522.8,203.2z"/>
		</g>
		<g>
			<path class="st0" d="M613.6,279.1l18.9,28.1c-7.3,35.7-20.4,51.7-54.5,71.5c-18.4,4-37.8,0.4-57.7-7l-14.6-36.7
				C541.1,309.7,577.4,293.7,613.6,279.1z"/>
			<path class="st2" d="M620,288.7c0.1,0.2-40.7,40.2-69.7,55.6c-15.2,8.1-38.8,5.1-38.8,5.1l-2.1-5.4c0,0,22.3-2.1,36.5-9.5
				c21.8-11.3,70.7-50.9,70.7-50.9L620,288.7z"/>
			<path class="st2" d="M557.3,330.8c0.2,0.8,3.1,14.8,3.1,14.8l-16.4,7l-7.6-10.8L557.3,330.8z"/>
			<path class="st4" d="M578,378.6c-16.9,5.3-33.6,7.3-53.9,8.2c0,0-6.2,0.4-7.4-4.2c-0.6-2.2,0.2-6.7,0.2-6.7s-2.6-1.7-3.4-6
				c-0.9-4.6,3.6-6.1,3.6-6.1C537.3,375.5,552.5,382.1,578,378.6z"/>
			<path class="st4" d="M578,378.6c12-25.4,39.6-51.2,62.2-62.7c0,0,2.9-4.1-0.6-8.8c-1.7-2.3-7-1.6-7-1.6s0.5-4.5-2.9-8.6
				c-3.7-4.5-6.7-3.7-6.7-3.7C605,315.4,583.7,344.1,578,378.6z"/>
		</g>
		<g>
			<path class="st4" d="M499,154l57.1-37.7c0.2,3,0.3,4.7,0.3,4.7c-33.6,38.5-73.1,58.4-119.6,57.8l-5.4-6.5L499,154z"/>
			<path class="st0" d="M409.7,69.9l-4-4.7C414,30.6,486-2.1,522.9,29.1c33.2,28.2,33.4,89.6,33.4,89.6
				c-34.1,38.6-74.2,58.7-121.4,58.2l-12.7-12.7l-2.1-13.1C413.9,140.4,402,82.4,409.7,69.9z"/>
			<path class="st6" d="M401.2,118.6C406.9,147.8,425,165,425,165s32.7,1.4,60.3-14.2c30.7-17.3,39.8-42.9,39.8-42.9
				S504.5,66,474.6,56.2c-32.1-10.5-62.4,5.8-62.4,5.8S393.5,78.3,401.2,118.6z"/>
			<path class="st7" d="M460.9,151.9c0,0-21.5,0.3-32.4-7.5c-14-10.1-24.3-48.4-24.3-48.4s0,34.8,16.8,55.9
				C431,164.5,460.9,151.9,460.9,151.9z"/>
			<path class="st7" d="M462.8,72c-2.3,5,1.2,11.9,7.8,15.3c6.6,3.4,13.8,2.1,16.2-2.9c2.3-5-1.2-11.9-7.8-15.3
				C472.4,65.7,465.2,67,462.8,72z"/>
			<path class="st0" d="M500.5,100.3c-1.4,13.3,5.5,25,15.3,26.1c9.8,1.2,18.9-8.7,20.3-22c1.4-13.3-5.5-25-15.3-26.1
				C510.9,77.2,501.8,87,500.5,100.3z"/>
			<path class="st2" d="M503.9,98.7c-1.7,12.4,5,23.6,14.9,25.3c10,1.6,19.5-7.1,21.2-19.5c1.7-12.4-5-23.6-14.9-25.3
				C515.1,77.5,505.6,86.3,503.9,98.7z"/>
		</g>
		<g>
			<g>
				<path class="st0" d="M669.6,584.5c6.4,7.7,12.4,13.3,12.4,13.3l76.4-61.9l-3-2.8l-35.9-29.7l-48.9,40.2c0,0-10.6,7.8-9.1,22.4
					C662.3,573.5,665.6,579.7,669.6,584.5z"/>
				<path class="st4" d="M669.6,584.5c5.8,8.1,12.4,13.3,12.4,13.3l76.4-61.9l-3.6-3.7l-10,8.1l-11.5-2.6l-15.1,12.2l-0.5,12.3
					l-29.1,23.6c0,0-5.6-3.3-10.8-3.5C673.5,582,669.6,584.5,669.6,584.5z"/>
			</g>
			<g>
				<path d="M673.3,543.9c16.6-6.2,22.5-9.7,38.6-28.3c0.3-0.3,0.2-0.8,0-1.1c-0.3-0.3-0.8-0.3-1,0.1
					c-16.8,19.4-22.4,22.2-37.7,27.9c-0.4,0.2-0.6,0.6-0.4,1C672.8,543.7,673,543.9,673.3,543.9z"/>
			</g>
		</g>
		<g>
			<g>
				<path class="st0" d="M804.3,268.2c0.9-10.2,0.5-18.7,0.5-18.7L710,232.9l0.1,4.3l4.3,48l61.1,10.3c0,0,12.6,2.9,21.6-8.3
					C801.8,281.4,803.7,274.6,804.3,268.2z"/>
				<path class="st4" d="M804.3,268.2c1.6-10.1,0.5-18.7,0.5-18.7L710,232.9l0,5.3l12.4,2.1l6.1,10.6l18.7,3.2l8.7-8l36.1,6.3
					c0,0,1.6,6.6,5,10.7C799.9,266.9,804.3,268.2,804.3,268.2z"/>
			</g>
			<g>
				<path d="M774.1,295.4c0.2,0,0.5-0.2,0.6-0.4c0.2-0.4,0-0.8-0.3-1c-15.4-8.4-22-10.5-45.7-10.2c-0.4,0-0.7,0.4-0.7,0.8
					c0,0.4,0.3,0.7,0.7,0.8c24.8-0.4,30.5,2.1,45,10C773.9,295.3,774,295.4,774.1,295.4z"/>
			</g>
		</g>
	</g>
</g>
</svg>
