<?xml version="1.0" encoding="utf-8"?>
<!-- Generator: Adobe Illustrator 26.5.0, SVG Export Plug-In . SVG Version: 6.00 Build 0)  -->
<svg version="1.1" id="Layer_1" xmlns="http://www.w3.org/2000/svg" xmlns:xlink="http://www.w3.org/1999/xlink" x="0px" y="0px"
	 viewBox="0 0 2880 1800" style="enable-background:new 0 0 2880 1800;" xml:space="preserve">
<style type="text/css">
	.st0{clip-path:url(#SVGID_00000072239498490741307830000016638244219048861592_);}
	.st1{fill:#091725;}
	.st2{fill:#0E1F33;}
	.st3{fill:#142846;}
	.st4{fill:#FFFFFF;}
</style>
<g>
	<defs>
		<rect id="SVGID_1_" width="2880" height="1800"/>
	</defs>
	<clipPath id="SVGID_00000153685001730599913520000010257311449797703604_">
		<use xlink:href="#SVGID_1_"  style="overflow:visible;"/>
	</clipPath>
	<g style="clip-path:url(#SVGID_00000153685001730599913520000010257311449797703604_);">
		<rect class="st1" width="2880" height="1800"/>
		<path class="st2" d="M-20.58,1072.62c33.62-46.02,78.09-84.06,128.76-110.16c32.87-16.93,69.92-29.04,106.52-23.78
			c68.64,9.86,113.14,74.43,163.97,121.6c78.94,73.26,189.85,110.79,297.06,100.51c150.9-14.47,280.64-116.12,429.68-143.83
			c35.1-6.53,72.06-8.73,105.93,2.58c75.04,25.05,114.02,107.43,132.44,184.37c20.39,85.18,25.88,173.36,24.15,260.93
			c-1.56,79.2-1.21,174.45,65.79,216.7c33.89,21.37,76.27,22.24,116.31,23.54c248.98,8.03,496.55,57.85,729.26,146.73
			c-292.49,41.72-584.46,87.03-875.84,135.91c-294.57,49.42-593.52,102.67-890.27,68.67C357.95,2038.6,204.2,1997,48.13,2004.48
			c-51.46,2.47-107.35,9.23-150.63-18.71c-58.71-37.88-65.97-121.76-50.68-189.94s46.78-134.41,42.82-204.17"/>
		<path class="st2" d="M1151.37-72.39c-27.4,34.27-12.92,88.84,20.78,116.94c33.69,28.1,80.1,35.21,123.97,35.68
			c104.55,1.13,209.47-28.95,312.63-11.96c31.11,5.13,62.67,15.17,85.65,36.76c43.07,40.46,43.99,107.13,45.22,166.21
			c1.88,90,11.96,181.63,48.9,263.72c36.94,82.1,104.13,154.13,190.52,179.47c134.68,39.52,272.88-39.04,391.11-114.69
			s255.73-154.9,390.81-116.76c150.88,42.59,248.21,221.39,404.95,224.64c120.87,2.51,215.63-103.88,270.97-211.37
			c29.62-57.55,53.49-125.89,28.75-185.7c-19.89-48.07-66.25-78.64-106.18-111.99c-68.43-57.17-123.58-130.14-159.91-211.58
			c-31.35-70.28-50.63-149.45-105.49-203.42c-41.8-41.13-99.11-62.06-155.46-78.32c-201.4-58.11-415.7-71.05-622.64-37.59
			c-129.83,20.99-257.95,60.06-389.45,58.67c-86.55-0.91-172.05-19.4-258.52-23.13c-172.89-7.44-347.79,46.47-486.49,149.95"/>
		<path class="st2" d="M-17.05,775.23c64.42-45.02,144.11-92.07,216.72-62.01c43.59,18.05,71.9,59.81,108.28,89.85
			c103.48,85.47,256.35,66.68,385.26,29.27c128.9-37.41,263.52-89.28,393.32-55.1c156.69,41.27,255.26,193.93,392.77,279.64
			c107.45,66.97,238.23,91.25,364.47,81.58s248.37-51.74,361.3-108.98c-211.27,121.43-505.52,71.6-665.03-112.62
			c-52.39-60.51-90.41-132.03-139.25-195.44c-82.57-107.19-200.9-191.76-334.76-211.49c-76.52-11.28-154.35-1.31-231.69-0.34
			c-77.34,0.98-158.67-8.49-221.93-52.99C484.21,366.45,478.96,174.25,374.74,57.22c-52.31-58.74-129.07-95-207.67-98.08
			c-34.49-1.35-70.9,4.12-98.31,25.1C11.92,27.75,17.33,112.48,14.21,184c-3.78,86.63-28.56,172.28-71.62,247.55"/>
		<path class="st2" d="M2935.79,1266.33c-45.19-50.08-104.84-105-170.32-88.8c-52.27,12.93-82.61,66.06-125.16,99.05
			c-65.25,50.59-156.43,51.02-237.51,35.44c-81.08-15.58-160.35-44.84-242.91-45.75c-37-0.41-76.56,6.11-103.69,31.28
			c-27.84,25.83-37.11,67.29-31.6,104.87c8.51,58.08,50.82,109.94,106,129.95c40.92,14.84,85.68,12.79,129.2,13.35
			c67.18,0.87,138.42,10.08,190.7,52.28c61.49,49.63,82.86,132.76,127.09,198.24c35.67,52.8,88.63,95.17,150.23,111.47
			c61.6,16.3,131.56,4.33,180.07-36.98c13.12-11.17,25.46-27.95,20.02-44.3c-5.65-16.98-26.4-22.55-43.97-25.9
			c-49.93-9.54-102.23-23.38-137.44-60.05c-39.35-40.98-49.35-102.07-82.01-148.56c-26.05-37.09-66.69-63.63-111.12-72.57
			c-33.31-6.7-68.24-3.87-100.98-12.97c-32.74-9.1-64.88-36.17-62.93-70.1c1.55-26.84,25.05-48.86,51.18-55.19
			c26.12-6.33,53.83,0.36,78.31,11.46c46.01,20.86,83.49,56.32,121.18,89.96c37.69,33.64,77.93,66.86,126.26,81.57
			s106.95,6.59,139.34-32.17c33.56-40.17,31.98-102.35,68.33-140.01c25.53-26.45,70.51-44.69,67.63-81.33"/>
		<path class="st2" d="M2966.49,929.68c-12.9-57.1-51.73-107.81-103.5-135.15c-24.75-13.07-56.25-20.49-79.86-5.47
			c-17.13,10.89-26.04,31.44-28.35,51.61c-5.69,49.59,22.42,96.6,53.75,135.46c25.48,31.61,53.86,60.88,84.67,87.32
			c32.92,28.26,76.62,54.6,117.37,39.72c25.37-9.27,43.32-33.6,49.73-59.83s2.55-54.07-5.66-79.8"/>
		<path class="st2" d="M568.07-25.72c-13.9,1.93-23.91,15.55-25.92,29.43c-2.01,13.88,2.31,27.87,7.42,40.94
			c37.52,95.83,123.67,171.13,223.66,195.5c51.14,12.46,112.94,8.7,145.86-32.37c23.09-28.81,25.98-69.77,16.5-105.45
			c-9.48-35.68-29.75-67.38-49.72-98.43c-23.61-36.71-47.22-73.41-70.82-110.12c-24.97-38.83-50.35-78.14-84.52-109.17
			c-34.17-31.03-78.77-53.35-124.87-51.11c-46.11,2.24-92.12,33.68-101.85,78.81"/>
		<path class="st2" d="M2846.77,705.02c-45.38,4.49-86.08,30.17-120.2,60.42c-34.12,30.25-63.48,65.6-98.03,95.35
			c-58.17,50.09-130.74,83.28-206.68,94.53c-29.21,4.33-64.26,3.05-81.3-21.07c-19.7-27.88-2.17-66.51,18.72-93.51
			c62.27-80.47,152.3-135.37,246.11-174.76c56.99-23.93,117.64-43.04,179.41-40.55c46.9,1.89,97.09,17.78,131.87,50.41
			C2985.66,740.54,2880.29,701.7,2846.77,705.02z"/>
		<path class="st3" d="M-60.02,1181.68c25.46,18.08,61.04,10.04,89-3.87c27.96-13.9,54.47-33.28,85.5-36.79
			c40.51-4.59,78.95,19.13,108.75,46.95c29.8,27.83,55.18,60.98,89.54,82.93c61.35,39.19,141.45,35.89,211.02,14.46
			c69.57-21.43,132.99-58.96,200.61-85.9c63.97-25.49,131.74-41.44,200.37-47.15c41.99-3.49,85.15-3.04,125.09,10.37
			c39.95,13.41,76.57,41.34,92.54,80.34c24.14,58.95-2.78,125.96,2.86,189.41c5.9,66.38,47.44,124.8,96.82,169.55
			c49.38,44.75,107.25,78.99,159.44,120.43c49.73,39.49,94.24,85.54,132.02,136.58c24.86,33.58,46.68,81.25,21.37,114.49
			c-8.05,10.57-19.76,17.63-31.24,24.32c-108.08,62.99-225.25,116.53-349.97,126.32s-258.63-30.5-337.37-127.71
			c-71.74-88.56-94.64-217.11-188.75-281.39c-59.1-40.37-134.87-46.36-206.41-44.18c-71.54,2.19-144.11,11.14-214.03-4.17
			C112.26,1641.5,21.83,1555.22-59.12,1469.9c-20.22-21.31-41.06-44.27-47.33-72.97c-8.44-38.65,11.42-77.26,30.62-111.85"/>
		<path class="st3" d="M1721.45-48.36c59.41-9.21,117.39,33.65,143.8,87.65c26.41,54.01,27.73,116.57,25.24,176.64
			c-2.5,60.06-8.19,121.15,5.84,179.6s52.55,115.27,110.24,132.15c48.44,14.17,100.5-1.91,146.18-23.38
			c45.68-21.47,89.6-48.74,139.1-58.65c65-13.01,131.71,5.35,197.93,8.34c75.81,3.42,152.45-13.87,219.45-49.51
			c77.39-41.18,153.38-108.74,239.57-92.72c46.6,8.66,85.19,41.08,130.07,56.33c43.67,14.85,92.95,12.45,134.97-6.56
			c24.66-11.16,48.76-31.16,51.06-58.13c3.52-41.28-42.39-67.19-81.01-82.18c-69.56-27-139.12-54-208.68-81
			c-50.79-19.72-103.26-39.74-157.72-38.31c-96.31,2.53-177.69,70.45-270.22,97.27c-62.84,18.22-131.21,16.84-193.26-3.9
			c-45.82-15.31-91.72-45.63-103.63-92.45c-8.03-31.56,0.82-65-2.85-97.36c-6.08-53.66-46.55-98.51-94.04-124.22
			s-101.72-35.49-154.9-44.92c-57.59-10.21-115.17-20.42-172.76-30.63c-4.7-0.83-9.54-1.67-14.23-0.75
			c-27.13,5.29-14.73,48.7-28.96,72.4"/>
		<path class="st3" d="M-22.73,714.45c-13.51-46.47,34.78-86.75,78.96-106.51c47.1-21.07,100.62-35.87,149.97-20.81
			c52.31,15.96,89.04,61.67,133.84,93.04c77.43,54.22,184.16,63.42,269.73,23.27c29.97-14.06,57.14-33.53,86.98-47.86
			c105.15-50.49,241.03-27.32,323.51,55.16c-1.27-44.38-38.84-79.15-77.6-100.81c-57.48-32.12-124.11-47.67-189.87-44.31
			c-51.34,2.62-102.3,16.45-153.49,11.69c-58.85-5.48-114.83-36.76-150.33-84.01c-27.29-36.32-42.15-80.17-61-121.52
			c-40.63-89.15-101.52-169-176.74-231.79c-36.08-30.11-76.14-56.69-121.17-70.14C45.03,56.41-5.64,57.22-46.96,79.6
			c-59.51,32.24-89.41,103.88-88.94,171.57c0.47,67.68,26.29,132.47,54.84,193.83"/>
	</g>
	<g style="clip-path:url(#SVGID_00000153685001730599913520000010257311449797703604_);">
		<circle class="st4" cx="206" cy="308" r="5"/>
		<circle class="st4" cx="170.5" cy="391.5" r="3.5"/>
		<circle class="st4" cx="244" cy="393" r="2"/>
		<circle class="st4" cx="244" cy="459" r="2"/>
		<circle class="st4" cx="342" cy="582" r="4"/>
		<circle class="st4" cx="386.5" cy="537.5" r="4.5"/>
		<circle class="st4" cx="332" cy="493" r="6"/>
		<circle class="st4" cx="430" cy="639" r="5"/>
		<circle class="st4" cx="487" cy="607" r="6"/>
		<circle class="st4" cx="329" cy="697" r="3"/>
		<circle class="st4" cx="208.5" cy="812.5" r="2.5"/>
		<circle class="st4" cx="235.5" cy="717.5" r="6.5"/>
		<circle class="st4" cx="232.5" cy="875.5" r="3.5"/>
		<circle class="st4" cx="316.5" cy="923.5" r="3.5"/>
		<circle class="st4" cx="364.5" cy="868.5" r="3.5"/>
		<circle class="st4" cx="295.5" cy="842.5" r="9.5"/>
		<circle class="st4" cx="173" cy="870" r="2"/>
		<circle class="st4" cx="170.5" cy="801.5" r="3.5"/>
		<circle class="st4" cx="111.5" cy="921.5" r="1.5"/>
		<circle class="st4" cx="492.5" cy="1012.5" r="11.5"/>
		<circle class="st4" cx="548" cy="924" r="3"/>
		<circle class="st4" cx="577.5" cy="1004.5" r="3.5"/>
		<circle class="st4" cx="487" cy="953" r="6"/>
		<circle class="st4" cx="436" cy="1018" r="6"/>
		<circle class="st4" cx="657.5" cy="1106.5" r="14.5"/>
		<circle class="st4" cx="753" cy="964" r="5"/>
		<circle class="st4" cx="814.5" cy="1002.5" r="1.5"/>
		<circle class="st4" cx="898.5" cy="904.5" r="15.5"/>
		<circle class="st4" cx="1083" cy="102" r="9"/>
		<circle class="st4" cx="863" cy="434" r="7"/>
		<circle class="st4" cx="728" cy="385" r="6"/>
		<circle class="st4" cx="563" cy="252" r="2"/>
		<circle class="st4" cx="487.5" cy="240.5" r="2.5"/>
		<circle class="st4" cx="491.5" cy="183.5" r="6.5"/>
		<circle class="st4" cx="430.5" cy="236.5" r="3.5"/>
		<circle class="st4" cx="486" cy="328" r="4"/>
		<circle class="st4" cx="521" cy="316" r="3"/>
		<circle class="st4" cx="525.5" cy="400.5" r="7.5"/>
		<circle class="st4" cx="578" cy="373" r="2"/>
		<circle class="st4" cx="734" cy="134" r="6"/>
		<circle class="st4" cx="831" cy="128" r="5"/>
		<circle class="st4" cx="903.5" cy="285.5" r="1.5"/>
		<circle class="st4" cx="976" cy="206" r="2"/>
		<circle class="st4" cx="1034" cy="404" r="4"/>
		<circle class="st4" cx="1058.5" cy="388.5" r="3.5"/>
		<circle class="st4" cx="1421" cy="188" r="6"/>
		<circle class="st4" cx="1342" cy="328" r="3"/>
		<circle class="st4" cx="1022.5" cy="713.5" r="7.5"/>
		<circle class="st4" cx="1003" cy="664" r="5"/>
		<circle class="st4" cx="952.5" cy="666.5" r="2.5"/>
		<circle class="st4" cx="1000.5" cy="825.5" r="7.5"/>
		<circle class="st4" cx="1052.5" cy="802.5" r="3.5"/>
		<circle class="st4" cx="1060" cy="845" r="1"/>
		<circle class="st4" cx="1179" cy="742" r="6"/>
		<circle class="st4" cx="1200" cy="942" r="7"/>
		<circle class="st4" cx="1267.5" cy="909.5" r="7.5"/>
		<circle class="st4" cx="1166.5" cy="1106.5" r="4.5"/>
		<circle class="st4" cx="1208.5" cy="1093.5" r="1.5"/>
		<circle class="st4" cx="1028.5" cy="1297.5" r="7.5"/>
		<circle class="st4" cx="1071.5" cy="1273.5" r="2.5"/>
		<circle class="st4" cx="879.5" cy="1405.5" r="6.5"/>
		<circle class="st4" cx="887" cy="1317" r="8"/>
		<circle class="st4" cx="709" cy="1434" r="14"/>
		<circle class="st4" cx="754" cy="1391" r="4"/>
		<circle class="st4" cx="717.5" cy="1261.5" r="5.5"/>
		<circle class="st4" cx="836.5" cy="1132.5" r="5.5"/>
		<circle class="st4" cx="905" cy="1047" r="4"/>
		<circle class="st4" cx="586" cy="1230" r="8"/>
	</g>
	<g style="clip-path:url(#SVGID_00000153685001730599913520000010257311449797703604_);">
		<circle class="st4" cx="1371" cy="541" r="5"/>
		<circle class="st4" cx="1335.5" cy="624.5" r="3.5"/>
		<circle class="st4" cx="1409" cy="626" r="2"/>
		<circle class="st4" cx="1409" cy="692" r="2"/>
		<circle class="st4" cx="1507" cy="815" r="4"/>
		<circle class="st4" cx="1551.5" cy="770.5" r="4.5"/>
		<circle class="st4" cx="1497" cy="726" r="6"/>
		<circle class="st4" cx="1595" cy="872" r="5"/>
		<circle class="st4" cx="1652" cy="840" r="6"/>
		<circle class="st4" cx="1494" cy="930" r="3"/>
		<circle class="st4" cx="1373.5" cy="1045.5" r="2.5"/>
		<circle class="st4" cx="1400.5" cy="950.5" r="6.5"/>
		<circle class="st4" cx="1397.5" cy="1108.5" r="3.5"/>
		<circle class="st4" cx="1481.5" cy="1156.5" r="3.5"/>
		<circle class="st4" cx="1529.5" cy="1101.5" r="3.5"/>
		<circle class="st4" cx="1460.5" cy="1075.5" r="9.5"/>
		<circle class="st4" cx="1338" cy="1103" r="2"/>
		<circle class="st4" cx="1335.5" cy="1034.5" r="3.5"/>
		<circle class="st4" cx="1276.5" cy="1154.5" r="1.5"/>
		<circle class="st4" cx="1657.5" cy="1245.5" r="11.5"/>
		<circle class="st4" cx="1713" cy="1157" r="3"/>
		<circle class="st4" cx="1742.5" cy="1237.5" r="3.5"/>
		<circle class="st4" cx="1652" cy="1186" r="6"/>
		<circle class="st4" cx="1601" cy="1251" r="6"/>
		<circle class="st4" cx="1822.5" cy="1339.5" r="14.5"/>
		<circle class="st4" cx="1918" cy="1197" r="5"/>
		<circle class="st4" cx="1979.5" cy="1235.5" r="1.5"/>
		<circle class="st4" cx="2063.5" cy="1137.5" r="15.5"/>
		<circle class="st4" cx="1932" cy="762" r="9"/>
		<circle class="st4" cx="2028" cy="667" r="7"/>
		<circle class="st4" cx="1893" cy="618" r="6"/>
		<circle class="st4" cx="1728" cy="485" r="2"/>
		<circle class="st4" cx="1652.5" cy="473.5" r="2.5"/>
		<circle class="st4" cx="1656.5" cy="416.5" r="6.5"/>
		<circle class="st4" cx="1595.5" cy="469.5" r="3.5"/>
		<circle class="st4" cx="1651" cy="561" r="4"/>
		<circle class="st4" cx="1686" cy="549" r="3"/>
		<circle class="st4" cx="1690.5" cy="633.5" r="7.5"/>
		<circle class="st4" cx="1743" cy="606" r="2"/>
		<circle class="st4" cx="1899" cy="367" r="6"/>
		<circle class="st4" cx="1996" cy="361" r="5"/>
		<circle class="st4" cx="2068.5" cy="518.5" r="1.5"/>
		<circle class="st4" cx="2141" cy="439" r="2"/>
		<circle class="st4" cx="2199" cy="637" r="4"/>
		<circle class="st4" cx="2223.5" cy="621.5" r="3.5"/>
		<circle class="st4" cx="2230" cy="807" r="6"/>
		<circle class="st4" cx="2259" cy="783" r="3"/>
		<circle class="st4" cx="2187.5" cy="946.5" r="7.5"/>
		<circle class="st4" cx="2168" cy="897" r="5"/>
		<circle class="st4" cx="2117.5" cy="899.5" r="2.5"/>
		<circle class="st4" cx="2165.5" cy="1058.5" r="7.5"/>
		<circle class="st4" cx="2217.5" cy="1035.5" r="3.5"/>
		<circle class="st4" cx="2225" cy="1078" r="1"/>
		<circle class="st4" cx="2344" cy="975" r="6"/>
		<circle class="st4" cx="2365" cy="1175" r="7"/>
		<circle class="st4" cx="2432.5" cy="1142.5" r="7.5"/>
		<circle class="st4" cx="2331.5" cy="1339.5" r="4.5"/>
		<circle class="st4" cx="2373.5" cy="1326.5" r="1.5"/>
		<circle class="st4" cx="2193.5" cy="1530.5" r="7.5"/>
		<circle class="st4" cx="2236.5" cy="1506.5" r="2.5"/>
		<circle class="st4" cx="2044.5" cy="1638.5" r="6.5"/>
		<circle class="st4" cx="2052" cy="1550" r="8"/>
		<circle class="st4" cx="1874" cy="1667" r="14"/>
		<circle class="st4" cx="1919" cy="1624" r="4"/>
		<circle class="st4" cx="1882.5" cy="1494.5" r="5.5"/>
		<circle class="st4" cx="2001.5" cy="1365.5" r="5.5"/>
		<circle class="st4" cx="2070" cy="1280" r="4"/>
		<circle class="st4" cx="1751" cy="1463" r="8"/>
	</g>
	<g style="clip-path:url(#SVGID_00000153685001730599913520000010257311449797703604_);">
		<path class="st4" d="M717.92,655.89c-2.28,1.55-5.39,0.96-6.95-1.33c-1.55-2.28-0.96-5.39,1.33-6.95
			c2.28-1.55,5.39-0.96,6.95,1.33S720.2,654.34,717.92,655.89z"/>
		<path class="st4" d="M628.05,672.2c-1.6,1.09-3.78,0.67-4.86-0.93c-1.09-1.6-0.67-3.78,0.93-4.86c1.6-1.09,3.78-0.67,4.86,0.93
			C630.07,668.94,629.65,671.12,628.05,672.2z"/>
		<path class="st4" d="M667.27,732.6c-0.91,0.62-2.16,0.38-2.78-0.53c-0.62-0.91-0.38-2.16,0.53-2.78c0.91-0.62,2.16-0.38,2.78,0.53
			C668.42,730.74,668.19,731.98,667.27,732.6z"/>
		<path class="st4" d="M612.68,769.69c-0.91,0.62-2.16,0.38-2.78-0.53s-0.38-2.16,0.53-2.78c0.91-0.62,2.16-0.38,2.78,0.53
			C613.83,767.83,613.59,769.07,612.68,769.69z"/>
		<path class="st4" d="M567.13,921.53c-1.83,1.24-4.32,0.77-5.56-1.06c-1.24-1.83-0.77-4.32,1.06-5.56
			c1.83-1.24,4.32-0.77,5.56,1.06C569.43,917.8,568.95,920.29,567.13,921.53z"/>
		<path class="st4" d="M629.22,933.75c-2.06,1.4-4.85,0.86-6.25-1.19c-1.4-2.06-0.86-4.85,1.19-6.25c2.06-1.4,4.85-0.86,6.25,1.19
			C631.81,929.55,631.28,932.35,629.22,933.75z"/>
		<path class="st4" d="M636.25,864.9c-2.74,1.86-6.47,1.15-8.33-1.59c-1.86-2.74-1.15-6.47,1.59-8.33c2.74-1.86,6.47-1.15,8.33,1.59
			C639.7,859.31,638.99,863.04,636.25,864.9z"/>
		<path class="st4" d="M569.99,1027.18c-2.28,1.55-5.39,0.96-6.95-1.33s-0.96-5.39,1.33-6.95c2.28-1.55,5.39-0.96,6.95,1.33
			S572.27,1025.63,569.99,1027.18z"/>
		<path class="st4" d="M629.05,1057.17c-2.74,1.86-6.47,1.15-8.33-1.59c-1.86-2.74-1.15-6.47,1.59-8.33
			c2.74-1.86,6.47-1.15,8.33,1.59C632.5,1051.58,631.79,1055.31,629.05,1057.17z"/>
		<path class="st4" d="M464.13,974.57c-1.37,0.93-3.24,0.57-4.17-0.8c-0.93-1.37-0.57-3.24,0.8-4.17c1.37-0.93,3.24-0.57,4.17,0.8
			C465.86,971.77,465.5,973.64,464.13,974.57z"/>
		<path class="st4" d="M300.6,939.38c-1.14,0.78-2.7,0.48-3.47-0.66c-0.78-1.14-0.48-2.7,0.66-3.47c1.14-0.78,2.7-0.48,3.47,0.66
			C302.04,937.05,301.74,938.61,300.6,939.38z"/>
		<path class="st4" d="M396.6,911.64c-2.97,2.02-7.01,1.25-9.03-1.72c-2.02-2.97-1.25-7.01,1.72-9.03c2.97-2.02,7.01-1.25,9.03,1.72
			C400.34,905.58,399.57,909.62,396.6,911.64z"/>
		<path class="st4" d="M262.53,995.46c-1.6,1.09-3.78,0.67-4.86-0.93c-1.09-1.6-0.67-3.78,0.93-4.86c1.6-1.09,3.78-0.67,4.86,0.93
			C264.55,992.2,264.13,994.38,262.53,995.46z"/>
		<path class="st4" d="M270.03,1091.92c-1.6,1.09-3.78,0.67-4.86-0.93c-1.09-1.6-0.67-3.78,0.93-4.86c1.6-1.09,3.78-0.67,4.86,0.93
			C272.05,1088.66,271.63,1090.83,270.03,1091.92z"/>
		<path class="st4" d="M342.5,1100.72c1.6-1.09,2.01-3.26,0.93-4.86s-3.26-2.01-4.86-0.93c-1.6,1.09-2.01,3.26-0.93,4.86
			C338.72,1101.39,340.9,1101.8,342.5,1100.72z"/>
		<path class="st4" d="M328.6,1033.99c-4.34,2.95-10.25,1.82-13.2-2.52c-2.95-4.34-1.82-10.25,2.52-13.2
			c4.34-2.95,10.25-1.82,13.2,2.52C334.07,1025.14,332.94,1031.05,328.6,1033.99z"/>
		<path class="st4" d="M232.81,941.91c-0.91,0.62-2.16,0.38-2.78-0.53c-0.62-0.91-0.38-2.16,0.53-2.78
			c0.91-0.62,2.16-0.38,2.78,0.53S233.72,941.29,232.81,941.91z"/>
		<path class="st4" d="M288.91,902.59c-1.6,1.09-3.78,0.67-4.86-0.93c-1.09-1.6-0.67-3.78,0.93-4.86c1.6-1.09,3.78-0.67,4.86,0.93
			C290.92,899.33,290.51,901.51,288.91,902.59z"/>
		<path class="st4" d="M155.37,919.57c-0.69,0.47-1.62,0.29-2.08-0.4s-0.29-1.62,0.4-2.08c0.69-0.47,1.62-0.29,2.08,0.4
			C156.23,918.17,156.05,919.1,155.37,919.57z"/>
		<path class="st4" d="M299.81,1294.13c-5.25,3.57-12.41,2.2-15.97-3.05c-3.57-5.25-2.2-12.41,3.05-15.97
			c5.25-3.57,12.41-2.2,15.97,3.05C306.42,1283.41,305.06,1290.56,299.81,1294.13z"/>
		<path class="st4" d="M399.42,1283.28c-1.37,0.93-3.24,0.57-4.17-0.8c-0.93-1.37-0.57-3.24,0.8-4.17c1.37-0.93,3.24-0.57,4.17,0.8
			C401.15,1280.48,400.79,1282.35,399.42,1283.28z"/>
		<path class="st4" d="M349.69,1353.33c-1.6,1.09-3.78,0.67-4.86-0.93c-1.09-1.6-0.67-3.78,0.93-4.86c1.6-1.09,3.78-0.67,4.86,0.93
			C351.71,1350.07,351.29,1352.24,349.69,1353.33z"/>
		<path class="st4" d="M342.84,1251.6c-2.74,1.86-6.47,1.15-8.33-1.59c-1.86-2.74-1.15-6.47,1.59-8.33
			c2.74-1.86,6.47-1.15,8.33,1.59C346.3,1246,345.58,1249.74,342.84,1251.6z"/>
		<path class="st4" d="M260.42,1245.94c-2.74,1.86-6.47,1.15-8.33-1.59c-1.86-2.74-1.15-6.47,1.59-8.33
			c2.74-1.86,6.47-1.15,8.33,1.59C263.87,1240.34,263.16,1244.07,260.42,1245.94z"/>
		
			<ellipse transform="matrix(0.6192 -0.7852 0.7852 0.6192 -1039.9717 803.359)" class="st4" cx="308.31" cy="1473.93" rx="14.5" ry="14.5"/>
		<path class="st4" d="M482.65,1476.98c-2.28,1.55-5.39,0.96-6.95-1.33c-1.55-2.28-0.96-5.39,1.33-6.95
			c2.28-1.55,5.39-0.96,6.95,1.33C485.53,1472.32,484.94,1475.43,482.65,1476.98z"/>
		<path class="st4" d="M483.4,1546.6c-0.69,0.47-1.62,0.29-2.08-0.4c-0.47-0.69-0.29-1.62,0.4-2.08c0.69-0.47,1.62-0.29,2.08,0.4
			C484.26,1545.2,484.08,1546.13,483.4,1546.6z"/>
		
			<ellipse transform="matrix(0.4937 -0.8696 0.8696 0.4937 -1047.1755 1320.9579)" class="st4" cx="610.82" cy="1559.77" rx="15.5" ry="15.5"/>
		<path class="st4" d="M852.59,1247.44c-4.11,2.79-9.71,1.72-12.5-2.39c-2.79-4.11-1.72-9.71,2.39-12.5
			c4.11-2.79,9.71-1.72,12.5,2.39C857.77,1239.05,856.71,1244.64,852.59,1247.44z"/>
		
			<ellipse transform="matrix(0.7506 -0.6608 0.6608 0.7506 -592.1215 963.4283)" class="st4" cx="980.06" cy="1266.02" rx="7" ry="7"/>
		<path class="st4" d="M948.11,1131.78c-2.74,1.86-6.47,1.15-8.33-1.59c-1.86-2.74-1.15-6.47,1.59-8.33
			c2.74-1.86,6.47-1.15,8.33,1.59C951.56,1126.18,950.85,1129.92,948.11,1131.78z"/>
		<path class="st4" d="M963.16,917.25c-0.91,0.62-2.16,0.38-2.78-0.53c-0.62-0.91-0.38-2.16,0.53-2.78
			c0.91-0.62,2.16-0.38,2.78,0.53C964.31,915.38,964.07,916.63,963.16,917.25z"/>
		<path class="st4" d="M930.53,848.75c-1.14,0.78-2.7,0.48-3.47-0.66c-0.78-1.14-0.48-2.7,0.66-3.47c1.14-0.78,2.7-0.48,3.47,0.66
			C931.97,846.41,931.67,847.97,930.53,848.75z"/>
		<path class="st4" d="M982.17,823.33c-2.97,2.02-7.01,1.25-9.03-1.72c-2.02-2.97-1.25-7.01,1.72-9.03
			c2.97-2.02,7.01-1.25,9.03,1.72C985.91,817.27,985.14,821.32,982.17,823.33z"/>
		<path class="st4" d="M902.37,800.17c-1.6,1.09-3.78,0.67-4.86-0.93c-1.09-1.6-0.67-3.78,0.93-4.86c1.6-1.09,3.78-0.67,4.86,0.93
			C904.38,796.91,903.97,799.09,902.37,800.17z"/>
		<path class="st4" d="M858.15,897.91c-1.83,1.24-4.32,0.77-5.56-1.06c-1.24-1.83-0.77-4.32,1.06-5.56
			c1.83-1.24,4.32-0.77,5.56,1.06C860.45,894.18,859.98,896.67,858.15,897.91z"/>
		<path class="st4" d="M887.18,919.29c-1.37,0.93-3.24,0.57-4.17-0.8c-0.93-1.37-0.57-3.24,0.8-4.17c1.37-0.93,3.24-0.57,4.17,0.8
			C888.91,916.5,888.55,918.36,887.18,919.29z"/>
		<path class="st4" d="M822.34,974.22c-3.43,2.33-8.09,1.44-10.42-1.99c-2.33-3.43-1.44-8.09,1.99-10.42
			c3.43-2.33,8.09-1.44,10.42,1.99C826.66,967.23,825.77,971.89,822.34,974.22z"/>
		<path class="st4" d="M871.5,997.65c-0.91,0.62-2.16,0.38-2.78-0.53c-0.62-0.91-0.38-2.16,0.53-2.78c0.91-0.62,2.16-0.38,2.78,0.53
			C872.65,995.78,872.41,997.03,871.5,997.65z"/>
		<path class="st4" d="M1159.1,995.7c-2.74,1.86-6.47,1.15-8.33-1.59c-1.86-2.74-1.15-6.47,1.59-8.33c2.74-1.86,6.47-1.15,8.33,1.59
			C1162.56,990.1,1161.85,993.84,1159.1,995.7z"/>
		<path class="st4" d="M1218.01,1071.74c-2.28,1.55-5.39,0.96-6.95-1.33c-1.55-2.28-0.96-5.39,1.33-6.95
			c2.28-1.55,5.39-0.96,6.95,1.33C1220.89,1067.07,1220.3,1070.18,1218.01,1071.74z"/>
		<path class="st4" d="M1126.5,1217.31c-0.69,0.47-1.62,0.29-2.08-0.4c-0.47-0.69-0.29-1.62,0.4-2.08c0.69-0.47,1.62-0.29,2.08,0.4
			C1127.37,1215.92,1127.19,1216.85,1126.5,1217.31z"/>
		<path class="st4" d="M1233.29,1233.03c-0.91,0.62-2.16,0.38-2.78-0.53c-0.62-0.91-0.38-2.16,0.53-2.78
			c0.91-0.62,2.16-0.38,2.78,0.53C1234.44,1231.16,1234.2,1232.41,1233.29,1233.03z"/>
		<path class="st4" d="M1103.22,1393.92c-1.83,1.24-4.32,0.77-5.56-1.06c-1.24-1.83-0.77-4.32,1.06-5.56
			c1.83-1.24,4.32-0.77,5.56,1.06S1105.04,1392.68,1103.22,1393.92z"/>
		<path class="st4" d="M1129.53,1405.06c-1.6,1.09-3.78,0.67-4.86-0.93c-1.09-1.6-0.67-3.78,0.93-4.86c1.6-1.09,3.78-0.67,4.86,0.93
			C1131.54,1401.8,1131.12,1403.98,1129.53,1405.06z"/>
		<path class="st4" d="M981.14,1516.74c-2.74,1.86-6.47,1.15-8.33-1.59c-1.86-2.74-1.15-6.47,1.59-8.33
			c2.74-1.86,6.47-1.15,8.33,1.59C984.59,1511.15,983.88,1514.88,981.14,1516.74z"/>
		<path class="st4" d="M1015.6,1524.76c-1.37,0.93-3.24,0.57-4.17-0.8c-0.93-1.37-0.57-3.24,0.8-4.17c1.37-0.93,3.24-0.57,4.17,0.8
			C1017.33,1521.97,1016.97,1523.83,1015.6,1524.76z"/>
		<path class="st4" d="M842.71,1561.22c-3.43,2.33-8.09,1.44-10.42-1.99c-2.33-3.43-1.44-8.09,1.99-10.42
			c3.43-2.33,8.09-1.44,10.42,1.99C847.02,1554.23,846.13,1558.89,842.71,1561.22z"/>
		<path class="st4" d="M871.29,1515.2c-2.28,1.55-5.39,0.96-6.95-1.33s-0.96-5.39,1.33-6.95c2.28-1.55,5.39-0.96,6.95,1.33
			S873.58,1513.65,871.29,1515.2z"/>
		<path class="st4" d="M839.44,1472.77c-1.14,0.78-2.7,0.48-3.47-0.66c-0.78-1.14-0.48-2.7,0.66-3.47s2.7-0.48,3.47,0.66
			C840.88,1470.44,840.58,1471.99,839.44,1472.77z"/>
		<path class="st4" d="M737.7,1605.95c-3.43,2.33-8.09,1.44-10.42-1.99c-2.33-3.43-1.44-8.09,1.99-10.42
			c3.43-2.33,8.09-1.44,10.42,1.99C742.02,1598.96,741.13,1603.63,737.7,1605.95z"/>
		<path class="st4" d="M783.7,1632.74c1.6-1.09,2.01-3.26,0.93-4.86c-1.09-1.6-3.26-2.01-4.86-0.93c-1.6,1.09-2.01,3.26-0.93,4.86
			C779.92,1633.41,782.1,1633.82,783.7,1632.74z"/>
		<path class="st4" d="M751.35,1660.75c-0.46,0.31-1.08,0.19-1.39-0.27c-0.31-0.46-0.19-1.08,0.27-1.39
			c0.46-0.31,1.08-0.19,1.39,0.27C751.93,1659.82,751.81,1660.44,751.35,1660.75z"/>
		<path class="st4" d="M906.23,1705.45c-2.74,1.86-6.47,1.15-8.33-1.59c-1.86-2.74-1.15-6.47,1.59-8.33
			c2.74-1.86,6.47-1.15,8.33,1.59C909.68,1699.85,908.97,1703.58,906.23,1705.45z"/>
		
			<ellipse transform="matrix(0.7506 -0.6608 0.6608 0.7506 -1022.5422 951.6265)" class="st4" cx="749.22" cy="1830.24" rx="7" ry="7"/>
		<path class="st4" d="M818.25,1874.02c-3.43,2.33-8.09,1.44-10.42-1.99c-2.33-3.43-1.44-8.09,1.99-10.42
			c3.43-2.33,8.09-1.44,10.42,1.99C822.57,1867.02,821.68,1871.69,818.25,1874.02z"/>
		<path class="st4" d="M596.85,1898.69c-2.06,1.4-4.85,0.86-6.25-1.19c-1.4-2.06-0.86-4.85,1.19-6.25c2.06-1.4,4.85-0.86,6.25,1.19
			C599.44,1894.49,598.91,1897.29,596.85,1898.69z"/>
		<path class="st4" d="M629.52,1923.64c-0.69,0.47-1.62,0.29-2.08-0.4c-0.47-0.69-0.29-1.62,0.4-2.08c0.69-0.47,1.62-0.29,2.08,0.4
			S630.21,1923.18,629.52,1923.64z"/>
		<path class="st4" d="M363,1894.34c-3.43,2.33-8.09,1.44-10.42-1.99c-2.33-3.43-1.44-8.09,1.99-10.42s8.09-1.44,10.42,1.99
			C367.32,1887.35,366.43,1892.02,363,1894.34z"/>
		<path class="st4" d="M404.21,1912.29c-1.14,0.78-2.7,0.48-3.47-0.66c-0.78-1.14-0.48-2.7,0.66-3.47c1.14-0.78,2.7-0.48,3.47,0.66
			C405.65,1909.96,405.35,1911.52,404.21,1912.29z"/>
		<path class="st4" d="M189.38,1830.95c-2.97,2.02-7.01,1.25-9.03-1.72c-2.02-2.97-1.25-7.01,1.72-9.03
			c2.97-2.02,7.01-1.25,9.03,1.72C193.12,1824.89,192.35,1828.94,189.38,1830.95z"/>
		<path class="st4" d="M267.64,1788.67c-3.65,2.48-8.63,1.53-11.11-2.12c-2.48-3.65-1.53-8.63,2.12-11.11
			c3.65-2.48,8.63-1.53,11.11,2.12C272.24,1781.21,271.29,1786.19,267.64,1788.67z"/>
		
			<ellipse transform="matrix(0.1876 -0.9823 0.9823 0.1876 -1616.4774 1446.7466)" class="st4" cx="66.34" cy="1700.56" rx="14" ry="14"/>
		<path class="st4" d="M129.44,1716.93c-1.83,1.24-4.32,0.77-5.56-1.06s-0.77-4.32,1.06-5.56c1.83-1.24,4.32-0.77,5.56,1.06
			C131.75,1713.2,131.27,1715.69,129.44,1716.93z"/>
		<path class="st4" d="M216.9,1615.21c-2.51,1.71-5.93,1.05-7.64-1.46c-1.71-2.51-1.05-5.93,1.46-7.64
			c2.51-1.71,5.93-1.05,7.64,1.46C220.06,1610.08,219.41,1613.5,216.9,1615.21z"/>
		<path class="st4" d="M390.47,1641.15c-2.51,1.71-5.93,1.05-7.64-1.46c-1.71-2.51-1.05-5.93,1.46-7.64
			c2.51-1.71,5.93-1.05,7.64,1.46C393.64,1636.03,392.99,1639.45,390.47,1641.15z"/>
		<path class="st4" d="M498.85,1648.53c-1.83,1.24-4.32,0.77-5.56-1.06s-0.77-4.32,1.06-5.56c1.83-1.24,4.32-0.77,5.56,1.06
			C501.15,1644.8,500.67,1647.29,498.85,1648.53z"/>
		<path class="st4" d="M170.47,1490.8c-3.65,2.48-8.63,1.53-11.11-2.12c-2.48-3.65-1.53-8.63,2.12-11.11
			c3.65-2.48,8.63-1.53,11.11,2.12C175.07,1483.34,174.12,1488.31,170.47,1490.8z"/>
	</g>
	<g style="clip-path:url(#SVGID_00000153685001730599913520000010257311449797703604_);">
		<circle class="st4" cx="1737" cy="288" r="5"/>
		<circle class="st4" cx="1701.5" cy="371.5" r="3.5"/>
		<circle class="st4" cx="1775" cy="373" r="2"/>
		<circle class="st4" cx="1775" cy="439" r="2"/>
		<circle class="st4" cx="1873" cy="562" r="4"/>
		<circle class="st4" cx="1917.5" cy="517.5" r="4.5"/>
		<circle class="st4" cx="1863" cy="473" r="6"/>
		<circle class="st4" cx="1961" cy="619" r="5"/>
		<circle class="st4" cx="2018" cy="587" r="6"/>
		<circle class="st4" cx="1860" cy="677" r="3"/>
		<circle class="st4" cx="1739.5" cy="792.5" r="2.5"/>
		<circle class="st4" cx="1766.5" cy="697.5" r="6.5"/>
		<circle class="st4" cx="1763.5" cy="855.5" r="3.5"/>
		<circle class="st4" cx="1847.5" cy="903.5" r="3.5"/>
		<circle class="st4" cx="1895.5" cy="848.5" r="3.5"/>
		<circle class="st4" cx="1826.5" cy="822.5" r="9.5"/>
		<circle class="st4" cx="1704" cy="850" r="2"/>
		<circle class="st4" cx="1701.5" cy="781.5" r="3.5"/>
		<circle class="st4" cx="1642.5" cy="901.5" r="1.5"/>
		<circle class="st4" cx="2023.5" cy="992.5" r="11.5"/>
		<circle class="st4" cx="2079" cy="904" r="3"/>
		<circle class="st4" cx="2108.5" cy="984.5" r="3.5"/>
		<circle class="st4" cx="2018" cy="933" r="6"/>
		<circle class="st4" cx="1967" cy="998" r="6"/>
		<circle class="st4" cx="2188.5" cy="1086.5" r="14.5"/>
		<circle class="st4" cx="2284" cy="944" r="5"/>
		<circle class="st4" cx="2345.5" cy="982.5" r="1.5"/>
		<circle class="st4" cx="2429.5" cy="884.5" r="15.5"/>
		<circle class="st4" cx="2298" cy="509" r="9"/>
		<circle class="st4" cx="2394" cy="414" r="7"/>
		<circle class="st4" cx="2259" cy="365" r="6"/>
		<circle class="st4" cx="2094" cy="232" r="2"/>
		<circle class="st4" cx="2018.5" cy="220.5" r="2.5"/>
		<circle class="st4" cx="2022.5" cy="163.5" r="6.5"/>
		<circle class="st4" cx="1961.5" cy="216.5" r="3.5"/>
		<circle class="st4" cx="2017" cy="308" r="4"/>
		<circle class="st4" cx="2052" cy="296" r="3"/>
		<circle class="st4" cx="2056.5" cy="380.5" r="7.5"/>
		<circle class="st4" cx="2109" cy="353" r="2"/>
		<circle class="st4" cx="2265" cy="114" r="6"/>
		<circle class="st4" cx="2362" cy="108" r="5"/>
		<circle class="st4" cx="2434.5" cy="265.5" r="1.5"/>
		<circle class="st4" cx="2507" cy="186" r="2"/>
		<circle class="st4" cx="2565" cy="384" r="4"/>
		<circle class="st4" cx="2589.5" cy="368.5" r="3.5"/>
		<circle class="st4" cx="2596" cy="554" r="6"/>
		<circle class="st4" cx="2625" cy="530" r="3"/>
		<circle class="st4" cx="2553.5" cy="693.5" r="7.5"/>
		<circle class="st4" cx="2534" cy="644" r="5"/>
		<circle class="st4" cx="2483.5" cy="646.5" r="2.5"/>
		<circle class="st4" cx="2531.5" cy="805.5" r="7.5"/>
		<circle class="st4" cx="2583.5" cy="782.5" r="3.5"/>
		<circle class="st4" cx="2591" cy="825" r="1"/>
		<circle class="st4" cx="2710" cy="722" r="6"/>
		<circle class="st4" cx="2731" cy="922" r="7"/>
		<circle class="st4" cx="2798.5" cy="889.5" r="7.5"/>
		<circle class="st4" cx="2697.5" cy="1086.5" r="4.5"/>
		<circle class="st4" cx="2739.5" cy="1073.5" r="1.5"/>
		<circle class="st4" cx="2559.5" cy="1277.5" r="7.5"/>
		<circle class="st4" cx="2602.5" cy="1253.5" r="2.5"/>
		<circle class="st4" cx="2410.5" cy="1385.5" r="6.5"/>
		<circle class="st4" cx="2418" cy="1297" r="8"/>
		<circle class="st4" cx="2240" cy="1414" r="14"/>
		<circle class="st4" cx="2285" cy="1371" r="4"/>
		<circle class="st4" cx="2248.5" cy="1241.5" r="5.5"/>
		<circle class="st4" cx="2367.5" cy="1112.5" r="5.5"/>
		<circle class="st4" cx="2436" cy="1027" r="4"/>
		<circle class="st4" cx="2117" cy="1210" r="8"/>
	</g>
	<g style="clip-path:url(#SVGID_00000153685001730599913520000010257311449797703604_);">
		<polygon class="st4" points="316,1483.95 357,1479.19 316.05,1479.82 333.75,1460.02 315.39,1479.2 311.31,1438.5 311.31,1479.24 
			292.52,1461.01 310.21,1480.24 270,1484.9 310.87,1484.27 293.57,1504.94 311.59,1484.8 315.69,1525.58 315.69,1485.77 
			334.81,1503.95 		"/>
	</g>
	<g style="clip-path:url(#SVGID_00000153685001730599913520000010257311449797703604_);">
		<polygon class="st4" points="626,1051.95 667,1047.19 626.05,1047.82 643.75,1028.02 625.39,1047.2 621.31,1006.5 621.31,1047.24 
			602.52,1029.01 620.21,1048.24 580,1052.9 620.87,1052.27 603.57,1072.94 621.59,1052.8 625.69,1093.58 625.69,1053.77 
			644.81,1071.95 		"/>
	</g>
	<g style="clip-path:url(#SVGID_00000153685001730599913520000010257311449797703604_);">
		<polygon class="st4" points="1694,553.95 1735,549.19 1694.05,549.82 1711.75,530.02 1693.39,549.2 1689.31,508.5 1689.31,549.24 
			1670.52,531.01 1688.21,550.24 1648,554.9 1688.87,554.27 1671.57,574.94 1689.59,554.8 1693.69,595.58 1693.69,555.77 
			1712.81,573.95 		"/>
	</g>
	<g style="clip-path:url(#SVGID_00000153685001730599913520000010257311449797703604_);">
		<polygon class="st4" points="505,1651.95 546,1647.19 505.05,1647.82 522.75,1628.02 504.39,1647.2 500.31,1606.5 500.31,1647.24 
			481.52,1629.01 499.21,1648.24 459,1652.9 499.87,1652.27 482.57,1672.94 500.59,1652.8 504.69,1693.58 504.69,1653.77 
			523.81,1671.95 		"/>
	</g>
</g>
</svg>
